<?xml version="1.0" encoding="UTF-8"?><svg id="Layer_1" xmlns="http://www.w3.org/2000/svg" viewBox="0 0 661.66 279.85"><defs><style>.cls-1{stroke-linecap:round;stroke-linejoin:round;}.cls-1,.cls-2,.cls-3{fill:none;}.cls-1,.cls-3{stroke:#66481c;stroke-width:3.5px;}.cls-4{letter-spacing:.01em;}.cls-5{font-family:MynaruseFlare-Reg, 'Mynaruse Flare Regular';font-size:94.94px;}.cls-5,.cls-6{fill:#624019;}.cls-7{fill:#c49b2d;font-family:Salenta, Salenta;font-size:65.05px;letter-spacing:.01em;stroke:#c39a2d;stroke-width:.85px;}.cls-7,.cls-2,.cls-3{stroke-miterlimit:10;}.cls-8{fill:#fce17f;}.cls-2{stroke:#d4a547;stroke-width:2px;}.cls-9{fill:#f7911e;}.cls-10{fill:#fbb516;}.cls-11{letter-spacing:.01em;}</style></defs><line class="cls-2" x1="495.28" y1="213.23" x2="571.23" y2="213.23"/><text class="cls-5" transform="translate(192.42 183.03)"><tspan class="cls-11" x="0" y="0">I</tspan><tspan x="33.7" y="0">SS</tspan><tspan class="cls-4" x="154.65" y="0">IBEA</tspan></text><rect class="cls-2" x="561" y="204.59" width="18.44" height="18.44" rx="1.72" ry="1.72" transform="translate(15.83 465.83) rotate(-45)"/><rect class="cls-2" x="550.39" y="204.01" width="18.44" height="18.44" rx="1.95" ry="1.95" transform="translate(13.13 458.16) rotate(-45)"/><path class="cls-9" d="M166.67,141.25c10.53,26.32,9.05,60.11-5.17,83.54-14.22,23.42-41.07,34.18-62.94,23.45-1.16-.56-2.3-1.18-3.48-1.76-2.18-1.41-4.17-2.78-5.98-4.08-.02-.39-.05-.81-.07-1.25,6.24-4.78,11.67-10,18.3-19.32l.02-.9c1.99,1.32,4.15,2.36,6.5,2.65,2.87.37,5.75-.33,8.49-1.25,8.97-2.97,17.35-8.16,23.33-15.47,7.77-9.49,11.09-22.01,11.3-34.27.58-10.78-.3-25.05-1.42-37.2-.56-6.14-1.18-11.8-1.72-16.3,5.17,6.49,9.53,13.91,12.83,22.13Z"/><path class="cls-6" d="M150.27,98.67c.83,2.18,2.39,7.75,2.27,10.16,0-.05.07.46.21,1.55v.02c-.28,1.76-.86,3.57-1.67,5.4-3.43-3.9-7.16-7.4-11.11-10.48.55-.37,1.09-.72,1.64-1.09,2.97-1.95,5.87-3.8,8.67-5.56Z"/><path class="cls-10" d="M132.18,99.97c2.67,1.6,5.27,3.38,7.79,5.34-7.59,5.06-15.49,10.83-22.78,17.28-17.55-16.37-39.45-20.48-60.16-1.58-6.21-6.14-12.85-11.64-19.44-16.4,2.51-1.78,5.12-3.39,7.79-4.83,9.07-4.52,24.02-8.47,29.78-9,4.96-.46,9.97-.77,15-.79,14.4-.12,28.83,2.09,42.04,9.99Z"/><path class="cls-8" d="M117.18,122.59c7.3-6.45,15.19-12.22,22.78-17.28,3.96,3.08,7.68,6.58,11.11,10.48-4.69,10.69-17.18,22.12-24.67,29.36-8.77,8.49-18.58,16.07-25.65,26.02-10.51,14.79-11.3,32.74,1.32,45.38,1.02,1.04,2.14,2.04,3.36,2.99.62.49,1.25.97,1.92,1.41l-.02.9c-6.63,9.32-12.06,14.54-18.3,19.32-.69-12.48-1.81-45.39-1.97-64.08l.63-4.94c1.3-14.89,8.84-27.97,19.04-39.28,3.25-3.6,6.77-7.03,10.44-10.27Z"/><path class="cls-10" d="M123.14,170.94c-13.24,11.8-21.03,27.09-20.66,45.22l-.4.39c-12.62-12.64-11.83-30.59-1.32-45.38,7.07-9.95,16.88-17.53,25.65-26.02,7.49-7.24,19.97-18.67,24.67-29.36.95,1.09,1.88,2.2,2.76,3.32.55,4.5,1.16,10.16,1.72,16.3-2.64,15.91-21.27,25.6-32.42,35.53Z"/><path class="cls-8" d="M67.99,133.21c10.2,12.89,17.67,27.74,19.08,43.86.16,18.69,1.28,51.6,1.97,64.08-.26.21-.55.42-.83.62-11.69-8.51-16.63-14.82-21.04-19.94.67-.46,1.3-.93,1.93-1.42.81-.65,1.58-1.3,2.32-1.99v-.02c13.68-12.66,13.15-31.17,2.36-46.36-7.07-9.95-16.9-17.53-25.65-26.02-7.86-7.61-19.15-19.62-22.77-30.71,3.8-4.08,7.89-7.63,12.22-10.71,6.59,4.76,13.24,10.27,19.44,16.4,3.87,3.83,7.58,7.91,10.97,12.2Z"/><path class="cls-6" d="M87.06,177.08c-1.41-16.12-8.88-30.98-19.08-43.86,16.77-12.59,21.11-12.39,38.75-.35-10.2,11.3-17.74,24.38-19.04,39.28l-.63,4.94Z"/><path class="cls-9" d="M17.46,164.82c.02,2.87.04,5.75.09,8.65.21,12.25,3.53,24.79,11.29,34.27,6,7.33,14.36,12.5,23.35,15.49,2.74.9,5.63,1.62,8.49,1.25,2.34-.32,4.5-1.34,6.49-2.64,4.41,5.12,9.35,11.43,21.04,19.94-2.02,1.53-4.13,3.04-6.42,4.62l.05.11-1.85,1.05c-21.5,12.2-48.93,3.36-64.22-19.18C.48,205.84-2.35,171.86,7.51,144.99c3.59-9.79,8.37-18.18,14.05-25.25-1.16,4.85-1.99,9.77-2.58,14.75-1.25,9.93-1.55,20.08-1.51,30.33Z"/><path class="cls-10" d="M73.77,172.05c10.79,15.19,11.32,33.7-2.36,46.36.37-18.13-10.88-38.06-24.12-49.86-11.13-9.9-25.65-18.18-28.32-34.05.6-4.98,1.42-9.9,2.58-14.75,1.21-1.55,2.5-3.02,3.8-4.43,3.62,11.09,14.91,23.1,22.77,30.71,8.76,8.49,18.58,16.07,25.65,26.02Z"/><path class="cls-6" d="M36.04,103.5l1.53,1.11c-4.32,3.08-8.42,6.63-12.22,10.71-1.3,1.41-2.58,2.88-3.8,4.43.91-3.99,2.06-7.95,3.45-11.87.67-1.88,3.11-7.35,3.82-9.21,2.37,1.51,4.8,3.13,7.23,4.83Z"/><path class="cls-3" d="M45.36,99.77c9.07-4.52,24.02-8.47,29.78-9,4.96-.46,9.97-.77,15-.79,14.4-.12,28.83,2.09,42.04,9.99,2.67,1.6,5.27,3.38,7.79,5.34,3.96,3.08,7.68,6.58,11.11,10.48.95,1.09,1.88,2.2,2.76,3.32,5.17,6.49,9.53,13.91,12.83,22.13,10.53,26.32,9.05,60.11-5.17,83.54-14.22,23.42-41.07,34.18-62.94,23.45-1.16-.56-2.3-1.18-3.48-1.76-2.74-1.35-5.56-2.44-8.44-1.97-1.67.28-3.25,1.11-4.8,1.99l-1.85,1.05c-21.5,12.2-48.93,3.36-64.22-19.18C.48,205.84-2.35,171.86,7.51,144.99c3.59-9.79,8.37-18.18,14.05-25.25,1.21-1.55,2.5-3.02,3.8-4.43,3.8-4.08,7.89-7.63,12.22-10.71,2.51-1.78,5.12-3.39,7.79-4.83,13.85-7.54,29.5-10.65,44.78-9.81"/><path class="cls-1" d="M152.75,110.39c.23,1.72.63,4.78,1.09,8.72.55,4.5,1.16,10.16,1.72,16.3,1.13,12.15,2,26.42,1.42,37.2-.21,12.25-3.53,24.77-11.3,34.27-5.98,7.31-14.36,12.5-23.33,15.47-2.74.91-5.63,1.62-8.49,1.25-2.36-.3-4.52-1.34-6.5-2.65-.67-.44-1.3-.91-1.92-1.41-1.21-.95-2.34-1.95-3.36-2.99-12.62-12.64-11.83-30.59-1.32-45.38,7.07-9.95,16.88-17.53,25.65-26.02,7.49-7.24,19.97-18.67,24.67-29.36.81-1.83,1.39-3.64,1.67-5.4"/><line class="cls-1" x1="152.75" y1="110.39" x2="152.75" y2="110.38"/><path class="cls-1" d="M150.27,98.67c.83,2.18,2.39,7.75,2.27,10.16,0-.05.07.46.21,1.55"/><path class="cls-3" d="M156.98,164.24c-1.44,6.38-5.2,9.07-9.12,12.92-5.89,5.78-13.94,9.18-19.43,15.37-2.09,2.36-3.67,5.24-3.97,8.37-.07.84-.04,1.71.32,2.46.6,1.21,1.95,1.88,3.29,2.09,2.18.33,4.5-.33,6.15-1.79,1.88-1.64,3.08-4.82,2.87-7.3"/><path class="cls-3" d="M17.06,163.33c.12.53.26,1.02.4,1.49,1.67,5.34,5.13,7.89,8.74,11.41,5.89,5.8,13.94,9.19,19.43,15.38,2.09,2.36,3.67,5.24,3.96,8.37.09.83.05,1.71-.3,2.46-.6,1.21-1.95,1.88-3.29,2.09-2.18.33-4.5-.33-6.15-1.79-1.88-1.65-3.08-4.82-2.87-7.31"/><path class="cls-3" d="M155.56,135.41c-2.64,15.91-21.27,25.6-32.42,35.53-13.24,11.8-21.03,27.09-20.66,45.22"/><path class="cls-3" d="M87.06,177.08l.63-4.94c1.3-14.89,8.84-27.97,19.04-39.28,3.25-3.6,6.77-7.03,10.44-10.27,7.3-6.45,15.19-12.22,22.78-17.28.55-.37,1.09-.72,1.64-1.09,2.97-1.95,5.87-3.8,8.67-5.56.33-.19.67-.4,1-.62"/><path class="cls-3" d="M28.82,98.67c2.37,1.51,4.8,3.13,7.23,4.83l1.53,1.11c6.59,4.76,13.24,10.27,19.44,16.4,3.87,3.83,7.58,7.91,10.97,12.2,10.2,12.89,17.67,27.74,19.08,43.86"/><path class="cls-1" d="M71.42,218.41c13.68-12.66,13.15-31.17,2.36-46.36-7.07-9.95-16.9-17.53-25.65-26.02-7.86-7.61-19.15-19.62-22.77-30.71-.44-1.27-.76-2.53-.95-3.78"/><path class="cls-1" d="M28.82,98.67c-.7,1.86-3.15,7.33-3.82,9.21-1.39,3.92-2.53,7.88-3.45,11.87-1.16,4.85-1.99,9.77-2.58,14.75-1.25,9.93-1.55,20.08-1.51,30.33.02,2.87.04,5.75.09,8.65.21,12.25,3.53,24.79,11.29,34.27,6,7.33,14.36,12.5,23.35,15.49,2.74.9,5.63,1.62,8.49,1.25,2.34-.32,4.5-1.34,6.49-2.64.67-.46,1.3-.93,1.93-1.42.81-.65,1.58-1.3,2.32-1.99"/><path class="cls-1" d="M18.97,134.5c2.67,15.88,17.19,24.16,28.32,34.05,13.24,11.8,24.49,31.73,24.12,49.86v.02"/><path class="cls-3" d="M18.96,134.44s0,.04.02.05"/><path class="cls-3" d="M95.89,247.01c-.28-.18-.55-.35-.81-.53-2.18-1.41-4.17-2.78-5.98-4.08-.32-.21-.6-.42-.9-.63-11.69-8.51-16.63-14.82-21.04-19.94"/><path class="cls-3" d="M81.79,246.4c2.29-1.58,4.4-3.09,6.42-4.62.28-.19.56-.4.83-.62,6.24-4.78,11.67-10,18.3-19.32"/><path class="cls-3" d="M87.06,169.32c-.04,2.13-.04,4.75,0,7.75.16,18.69,1.28,51.6,1.97,64.08.02.44.05.86.07,1.25"/><path class="cls-3" d="M67.55,133.55c.14-.11.3-.23.44-.33,16.77-12.59,21.11-12.39,38.75-.35.32.23.67.46,1,.69"/><path class="cls-3" d="M57.02,121.01c20.71-18.9,42.62-14.79,60.16,1.58.11.09.21.18.32.28"/><text class="cls-7" transform="translate(206.12 220.79)"><tspan x="0" y="0">Creative Co.</tspan></text></svg>