<?xml version="1.0" encoding="UTF-8"?>
<svg id="Layer_1" data-name="Layer 1" xmlns="http://www.w3.org/2000/svg" viewBox="0 0 557.19 243.66">
  <defs>
    <style>
      .cls-1 {
        fill: #fab416;
      }

      .cls-2, .cls-3, .cls-4, .cls-5, .cls-6 {
        stroke-miterlimit: 10;
      }

      .cls-2, .cls-7, .cls-8, .cls-5, .cls-6 {
        fill: none;
      }

      .cls-2, .cls-7, .cls-8, .cls-6 {
        stroke-linecap: round;
      }

      .cls-2, .cls-7, .cls-5 {
        stroke: #66481c;
        stroke-width: 3px;
      }

      .cls-3, .cls-8, .cls-6 {
        stroke: #c39a2d;
      }

      .cls-3, .cls-4 {
        fill: #c39a2d;
      }

      .cls-9 {
        fill: #f6901e;
      }

      .cls-7, .cls-8 {
        stroke-linejoin: round;
      }

      .cls-8, .cls-6 {
        stroke-width: 1.8px;
      }

      .cls-4 {
        stroke: #c3992d;
        stroke-width: .85px;
      }

      .cls-10 {
        fill: #fce17f;
      }

      .cls-11 {
        fill: #624019;
      }
    </style>
  </defs>
  <g>
    <path class="cls-11" d="M204.21,175.15h-9.36c.61-7.15.91-17.44.91-30.89v-3.63c0-13.45-.3-23.74-.91-30.89h9.36c-.54,6.48-.82,16.78-.82,30.89v3.63c0,14.17.27,24.47.82,30.89Z"/>
    <path class="cls-11" d="M244.63,111.01c-4.3,0-7.77.89-10.4,2.68-2.63,1.79-3.95,4.41-3.95,7.86,0,2.85,1.15,5.38,3.45,7.59,2.3,2.21,6.3,4.59,11.99,7.13l5.27,2.45c10.9,4.97,16.35,11.36,16.35,19.17,0,6.36-2.18,11.02-6.54,13.99-4.36,2.97-9.87,4.45-16.53,4.45-4.72,0-9.51-1.06-14.35-3.18-2.12-.91-3.85-1.36-5.18-1.36l-1.73-10.08,1-.36c2.06,4.36,4.94,7.57,8.63,9.63,3.69,2.06,7.6,3.09,11.72,3.09,4.78,0,8.74-1.07,11.86-3.23,3.12-2.15,4.68-5.31,4.68-9.49,0-6.24-5.36-11.78-16.08-16.62l-5.54-2.45c-5.33-2.42-9.25-5.04-11.76-7.86-2.51-2.82-3.77-6.04-3.77-9.68,0-4.91,1.82-8.78,5.45-11.63,3.63-2.85,8.99-4.27,16.08-4.27,3.39,0,6.37.41,8.95,1.23,2.57.82,4.6,1.64,6.09,2.45,1.48.82,2.59,1.23,3.32,1.23l1.63,8.81-.91.27c-2-4.3-4.6-7.36-7.81-9.18-3.15-1.76-7.12-2.63-11.9-2.63Z"/>
    <path class="cls-11" d="M302.5,111.01c-4.3,0-7.77.89-10.4,2.68-2.63,1.79-3.95,4.41-3.95,7.86,0,2.85,1.15,5.38,3.45,7.59,2.3,2.21,6.3,4.59,11.99,7.13l5.27,2.45c10.9,4.97,16.35,11.36,16.35,19.17,0,6.36-2.18,11.02-6.54,13.99-4.36,2.97-9.87,4.45-16.53,4.45-4.72,0-9.51-1.06-14.35-3.18-2.12-.91-3.85-1.36-5.18-1.36l-1.73-10.08,1-.36c2.06,4.36,4.94,7.57,8.63,9.63,3.69,2.06,7.6,3.09,11.72,3.09,4.78,0,8.74-1.07,11.86-3.23,3.12-2.15,4.68-5.31,4.68-9.49,0-6.24-5.36-11.78-16.08-16.62l-5.54-2.45c-5.33-2.42-9.25-5.04-11.76-7.86-2.51-2.82-3.77-6.04-3.77-9.68,0-4.91,1.82-8.78,5.45-11.63,3.63-2.85,8.99-4.27,16.08-4.27,3.39,0,6.37.41,8.95,1.23,2.57.82,4.6,1.64,6.09,2.45,1.48.82,2.59,1.23,3.32,1.23l1.63,8.81-.91.27c-2-4.3-4.6-7.36-7.81-9.18-3.15-1.76-7.12-2.63-11.9-2.63Z"/>
    <path class="cls-11" d="M352.2,175.15h-9.36c.61-7.15.91-17.44.91-30.89v-3.63c0-13.45-.3-23.74-.91-30.89h9.36c-.54,6.48-.82,16.78-.82,30.89v3.63c0,14.17.27,24.47.82,30.89Z"/>
    <path class="cls-11" d="M393.26,175.15h-18.08c.55-7.87.82-18.17.82-30.89v-3.63c0-12.66-.27-22.95-.82-30.89h16.44c7.75,0,13.97,1.29,18.67,3.86,4.69,2.58,7.04,6.25,7.04,11.04,0,4.42-1.54,7.94-4.63,10.54-3.09,2.6-6.94,4-11.54,4.18,6.3.18,11.54,1.8,15.72,4.86,4.18,3.06,6.27,7.34,6.27,12.85,0,6-2.74,10.51-8.22,13.54-5.48,3.03-12.7,4.54-21.67,4.54ZM391.17,111.46h-7.45c-.3,13.51-.45,22.53-.45,27.07h5.91c2.91,0,5.45-.18,7.63-.54,2.18-.36,4.32-1,6.41-1.91,2.09-.91,3.69-2.29,4.81-4.13,1.12-1.85,1.68-4.16,1.68-6.95,0-9.02-6.18-13.54-18.53-13.54ZM383.72,173.24h9.36c7.51,0,13.05-1.3,16.62-3.91,3.57-2.6,5.36-6.75,5.36-12.45,0-6-2.06-10.25-6.18-12.76-4.12-2.51-10.72-3.77-19.8-3.77h-5.81v2.27c0,5.09.15,15.29.45,30.62Z"/>
    <path class="cls-11" d="M462.58,175.15h-21.17c.42-13.26.64-23.56.64-30.89v-3.63c0-9.69-.21-19.99-.64-30.89h21.89c9.57,0,14.47-.39,14.72-1.18.67,0,1.12.55,1.36,1.64l1.09,4.72-.73.27c-1.03-1.51-2.59-2.47-4.68-2.86-2.09-.39-5.95-.59-11.58-.59h-13.54c-.36,13.63-.54,22.8-.54,27.53h3.82c2.24,0,5.27-.15,9.08-.45,3.82-.3,6.03-.48,6.63-.54-.12.61-.18,1.24-.18,1.91,0,.85.06,1.45.18,1.82-6.54-.6-11.78-.91-15.72-.91h-3.82c0,4.42.09,10.72.27,18.9.18,8.18.27,12.6.27,13.26h12.63c7.45,0,12.32-.26,14.63-.77,2.3-.51,4.12-1.68,5.45-3.5l.55.27-.82,3.82c-.06.3-.14.62-.23.95-.09.33-.15.61-.18.82-.03.21-.08.41-.14.59-.06.18-.11.32-.14.41-.03.09-.08.18-.14.27-.06.09-.12.15-.18.18-.06.03-.15.05-.27.05-.79-.61-2-.95-3.63-1.04-1.64-.09-6.6-.14-14.9-.14Z"/>
    <path class="cls-11" d="M497.19,175.15h-6.09c1.03-.97,2.75-3.97,5.18-8.99l26.35-56.87h1.45l24.89,55.78c1.09,2.24,2.03,4.06,2.82,5.45.79,1.39,1.41,2.44,1.86,3.13.45.7.77,1.2.95,1.5h-11.99c.36-1.64-.09-3.97-1.36-7l-6.63-15.54-29.16.45-6.54,15.17c-1.45,3.21-2.03,5.51-1.73,6.9ZM520.17,118.64l-13.54,31.61,27.25.73-13.72-32.34Z"/>
  </g>
  <g>
    <g>
      <path class="cls-9" d="M159.32,135.17c10.08,25.19,8.66,57.52-4.95,79.95-13.61,22.41-39.3,32.71-60.23,22.44-1.09-.54-2.19-1.11-3.3-1.67-2.1-1.36-4.02-2.67-5.77-3.92-.02-.37-.05-.77-.07-1.21,5.99-4.58,11.17-9.56,17.53-18.47l.02-.86c1.9,1.26,3.99,2.25,6.22,2.54,2.74.35,5.5-.32,8.13-1.19,8.58-2.84,16.61-7.81,22.33-14.8,7.44-9.08,10.62-21.06,10.82-32.79.56-10.31-.3-23.99-1.36-35.6-.54-5.87-1.13-11.29-1.65-15.6,4.95,6.21,9.12,13.31,12.28,21.18Z"/>
      <path class="cls-1" d="M147.04,113.98c.52,4.31,1.11,9.72,1.65,15.6-2.54,15.23-20.37,24.5-31.02,34-12.69,11.29-20.12,25.93-19.77,43.27l-.39.37c-12.08-12.1-11.32-29.27-1.26-43.42,6.76-9.52,16.15-16.77,24.55-24.9,7.17-6.93,19.11-17.87,23.6-28.1.91,1.04,1.8,2.1,2.64,3.18Z"/>
      <path class="cls-11" d="M135.33,99.72c2.84-1.87,5.62-3.63,8.29-5.3.79,2.09,2.29,7.42,2.17,9.72,0,0,.07.52.2,1.48v.02c-.27,1.68-.82,3.42-1.6,5.16-3.28-3.73-6.86-7.1-10.65-10.03.52-.35,1.06-.71,1.58-1.06Z"/>
      <path class="cls-10" d="M101.97,127.14c3.11-3.47,6.48-6.75,10.01-9.84,6.97-6.17,14.52-11.68,21.77-16.52,3.79,2.93,7.37,6.29,10.65,10.03-4.49,10.23-16.44,21.16-23.6,28.1-8.4,8.13-17.78,15.38-24.55,24.9-10.06,14.15-10.82,31.33,1.26,43.42.98.99,2.05,1.95,3.21,2.86.59.47,1.19.93,1.83,1.35l-.02.86c-6.36,8.92-11.54,13.9-17.53,18.47-.64-11.98-1.73-43.62-1.88-61.47,0,.07.02.12.02.19l.61-4.74c1.23-14.25,8.45-26.77,18.22-37.58Z"/>
      <path class="cls-1" d="M126.31,95.66c2.54,1.53,5.03,3.23,7.44,5.11-7.25,4.85-14.8,10.35-21.77,16.52-16.79-15.65-37.77-19.58-57.6-1.5-5.92-5.87-12.3-11.14-18.59-15.7,2.41-1.7,4.9-3.25,7.44-4.63.07-.03.12-.07.19-.08,8.71-4.29,22.85-8.02,28.33-8.53,4.74-.42,9.56-.74,14.35-.76,13.78-.12,27.59,2,40.23,9.56Z"/>
      <path class="cls-10" d="M64.89,127.48c9.72,12.28,16.87,26.45,18.24,41.81.15,17.85,1.24,49.5,1.88,61.47-.25.22-.5.4-.77.61-11.19-8.13-15.92-14.2-20.15-19.08.64-.44,1.26-.89,1.87-1.36.77-.61,1.51-1.24,2.2-1.9,13.11-12.11,12.6-29.85,2.27-44.38-6.76-9.52-16.17-16.77-24.55-24.9-7.52-7.28-18.32-18.78-21.79-29.39,3.62-3.9,7.54-7.3,11.69-10.25,6.29,4.56,12.67,9.83,18.59,15.7,3.72,3.67,7.25,7.57,10.51,11.68Z"/>
      <path class="cls-11" d="M83.12,169.28c-1.36-15.36-8.51-29.53-18.24-41.81,16.03-12.05,20.19-11.86,37.08-.34-9.77,10.82-16.99,23.33-18.22,37.58l-.61,4.74c0-.07-.02-.12-.02-.19Z"/>
      <path class="cls-9" d="M16.54,157.73c.02,2.74.03,5.5.08,8.28.2,11.73,3.38,23.72,10.8,32.79,5.74,7.02,13.74,11.96,22.34,14.82,2.62.86,5.38,1.55,8.13,1.19,2.24-.3,4.29-1.28,6.19-2.52,4.24,4.88,8.97,10.95,20.15,19.08-1.93,1.46-3.97,2.89-6.14,4.42l.05.1-1.77,1.01c-20.58,11.68-46.82,3.21-61.46-18.35C.28,196.98-2.43,164.46,7.01,138.75c3.43-9.37,8.01-17.4,13.44-24.16-1.11,4.64-1.9,9.35-2.47,14.12-1.19,9.51-1.48,19.21-1.45,29.02Z"/>
      <path class="cls-1" d="M70.42,164.64c10.33,14.54,10.83,32.27-2.27,44.38.37-17.35-10.41-36.44-23.08-47.73-10.65-9.47-24.53-17.4-27.09-32.59.57-4.76,1.36-9.47,2.47-14.12,1.16-1.48,2.39-2.89,3.63-4.24,3.47,10.62,14.27,22.11,21.79,29.39,8.38,8.13,17.78,15.38,24.55,24.9Z"/>
      <path class="cls-11" d="M34.3,99.05c.49.35.98.71,1.48,1.06-4.16,2.94-8.08,6.34-11.69,10.25-1.24,1.35-2.47,2.76-3.63,4.24.89-3.82,1.97-7.6,3.3-11.36.64-1.8,2.96-7.03,3.63-8.82,2.27,1.45,4.59,2.99,6.91,4.63Z"/>
    </g>
    <g>
      <path class="cls-5" d="M43.4,95.39c13.22-7.15,28.13-10.09,42.68-9.3"/>
      <path class="cls-5" d="M43.22,95.48c.07-.03.12-.07.19-.08,8.71-4.29,22.85-8.02,28.33-8.53,4.74-.42,9.56-.74,14.35-.76,13.78-.12,27.59,2,40.23,9.56,2.54,1.53,5.03,3.23,7.44,5.11,3.79,2.93,7.37,6.29,10.65,10.03.91,1.04,1.8,2.1,2.64,3.18,4.95,6.21,9.12,13.31,12.28,21.18,10.08,25.19,8.66,57.52-4.95,79.95-13.61,22.41-39.3,32.71-60.23,22.44-1.09-.54-2.19-1.11-3.3-1.67-2.64-1.3-5.33-2.37-8.11-1.9-1.6.27-3.11,1.06-4.59,1.9l-1.77,1.01c-20.58,11.68-46.82,3.21-61.46-18.35C.28,196.98-2.43,164.46,7.01,138.75c3.43-9.37,8.01-17.4,13.44-24.16,1.16-1.48,2.39-2.89,3.63-4.24,3.62-3.9,7.54-7.3,11.69-10.25,2.41-1.7,4.9-3.25,7.44-4.63"/>
      <path class="cls-7" d="M145.99,105.64c.22,1.65.61,4.58,1.04,8.34.52,4.31,1.11,9.72,1.65,15.6,1.06,11.61,1.92,25.29,1.36,35.6-.2,11.73-3.38,23.7-10.82,32.79-5.72,7-13.74,11.96-22.33,14.8-2.62.87-5.38,1.55-8.13,1.19-2.24-.29-4.32-1.28-6.22-2.54-.64-.42-1.24-.87-1.83-1.35-1.16-.91-2.24-1.87-3.21-2.86-12.08-12.1-11.32-29.27-1.26-43.42,6.76-9.52,16.15-16.77,24.55-24.9,7.17-6.93,19.11-17.87,23.6-28.1.77-1.75,1.33-3.48,1.6-5.16"/>
      <line class="cls-7" x1="145.99" y1="105.64" x2="145.99" y2="105.62"/>
      <path class="cls-7" d="M143.62,94.42c.79,2.09,2.29,7.42,2.17,9.72,0,0,.07.52.2,1.48"/>
      <path class="cls-2" d="M150.05,157.17c-1.38,6.11-5,8.68-8.73,12.37-5.65,5.54-13.34,8.78-18.61,14.7-1.99,2.25-3.52,5.01-3.79,8.01-.07.79-.05,1.63.3,2.36.56,1.16,1.87,1.8,3.15,2,2.09.32,4.31-.32,5.89-1.72,1.8-1.56,2.94-4.61,2.73-7"/>
      <path class="cls-2" d="M16.15,156.3c.12.5.24.98.39,1.43,1.58,5.11,4.91,7.55,8.34,10.92,5.65,5.55,13.34,8.8,18.61,14.72,1.99,2.24,3.52,5.01,3.79,8.01.07.79.05,1.63-.3,2.34-.56,1.18-1.87,1.82-3.15,2.02-2.09.32-4.31-.32-5.89-1.72-1.8-1.58-2.94-4.61-2.73-7"/>
      <path class="cls-5" d="M148.69,129.58c-2.54,15.23-20.37,24.5-31.02,34-12.69,11.29-20.12,25.93-19.77,43.27"/>
      <path class="cls-5" d="M27.39,94.42c2.27,1.45,4.59,2.99,6.91,4.63.49.35.98.71,1.48,1.06,6.29,4.56,12.67,9.83,18.59,15.7,3.72,3.67,7.25,7.57,10.51,11.68,9.72,12.28,16.87,26.45,18.24,41.81,0,.07.02.12.02.19l.61-4.74c1.23-14.25,8.45-26.77,18.22-37.58,3.11-3.47,6.48-6.75,10.01-9.84,6.97-6.17,14.52-11.68,21.77-16.52.52-.35,1.06-.71,1.58-1.06,2.84-1.87,5.62-3.63,8.29-5.3.32-.2.62-.39.94-.59"/>
      <path class="cls-7" d="M27.39,94.42c-.67,1.78-2.99,7.02-3.63,8.82-1.33,3.75-2.41,7.54-3.3,11.36-1.11,4.64-1.9,9.35-2.47,14.12-1.19,9.51-1.48,19.21-1.45,29.02.02,2.74.03,5.5.08,8.28.2,11.73,3.38,23.72,10.8,32.79,5.74,7.02,13.74,11.96,22.34,14.82,2.62.86,5.38,1.55,8.13,1.19,2.24-.3,4.29-1.28,6.19-2.52.64-.44,1.26-.89,1.87-1.36.77-.61,1.51-1.24,2.2-1.9,13.11-12.11,12.6-29.85,2.27-44.38-6.76-9.52-16.17-16.77-24.55-24.9-7.52-7.28-18.32-18.78-21.79-29.39-.42-1.21-.72-2.42-.91-3.62"/>
      <path class="cls-7" d="M17.98,128.71c2.56,15.19,16.44,23.12,27.09,32.59,12.67,11.29,23.45,30.38,23.08,47.73"/>
      <path class="cls-5" d="M17.97,128.64s0,.05.02.07"/>
      <path class="cls-5" d="M91.57,236.36c-.25-.15-.49-.32-.72-.47-2.1-1.36-4.02-2.67-5.77-3.92-.29-.22-.57-.4-.84-.61-11.19-8.13-15.92-14.2-20.15-19.08"/>
      <path class="cls-5" d="M78.09,235.79c2.17-1.53,4.21-2.96,6.14-4.42.27-.2.52-.39.77-.61,5.99-4.58,11.17-9.56,17.53-18.47"/>
      <path class="cls-5" d="M83.12,162.03c-.03,1.99-.02,4.46,0,7.25.15,17.85,1.24,49.5,1.88,61.47.02.44.05.84.07,1.21"/>
      <path class="cls-5" d="M64.47,127.8c.13-.1.29-.22.42-.32,16.03-12.05,20.19-11.86,37.08-.34.3.22.62.44.94.66"/>
      <path class="cls-5" d="M54.37,115.8c19.84-18.09,40.81-14.15,57.6,1.5.1.08.19.19.29.27"/>
    </g>
  </g>
  <g>
    <path class="cls-4" d="M263.91,202.88c-3.92,3.36-9.71,8.4-14.94,8.4-2.24,0-2.99-1.06-2.99-2.55,0-2.49,1.99-6.04,2.8-7.66-.87-.12-2.05-.44-3.05-.93-8.59,8.28-24.09,24.77-37.28,24.71-9.4-.06-11.45-9.77-11.39-17.37.12-22.41,17.37-58.69,36.6-58.51,8.46.12,11.08,8.9,8.15,15.68-.12.25-.37.37-.62.37-.56,0-1.12-.44-.81-1.12,2.61-6.04,0-13.63-6.72-13.69-17.86,0-34.85,35.98-35.17,57.57-.12,6.85,1.43,15.93,10.02,16.06,12.57.12,28.32-16.37,36.41-24.27-.62-.5-1-1.06-.93-1.87,0-1.06,1.12-1.74,2.12-1.68.68,0,1.31.37,1.31,1.18,0,.56-.44,1.37-1.06,2.12,1.12.56,2.61.81,3.3.87.37,0,1,.19,1,.75,0,.81-3.3,5.42-3.3,7.84-.06.93.37,1.49,1.62,1.49,4.92,0,10.64-4.98,14.32-8.15.37-.37.93.44.62.75ZM246.42,197.22c0-.12-.12-.25-.37-.25-.44,0-1.06.31-1.12.81,0,.44.25.75.62,1.06.56-.62.93-1.18.87-1.62Z"/>
    <path class="cls-4" d="M279.85,202.88c-3.55,3.05-9.65,8.46-14.81,8.34-2.43-.06-3.42-1.37-3.49-3.17-.12-3.24,2.55-7.47,5.85-7.47.93,0,1.68.44,1.68,1.43.06,2.37-3.24,3.24-5.23,3.36-.56,1-.93,1.81-.93,2.93.06,1.18.62,1.99,2.12,1.99,4.85.06,10.89-5.35,14.19-8.15.5-.5,1.18.25.62.75ZM264.48,204.31c1.49-.25,3.67-1,3.67-2.24,0-.31-.31-.5-.62-.5-1.18,0-2.43,1.74-3.05,2.74Z"/>
    <path class="cls-4" d="M300.7,202.88c-3.92,3.36-9.71,8.4-14.94,8.4-2.24,0-2.99-1.06-2.99-2.55-.06-1.31.56-2.99,1.25-4.54-2.05,2.24-4.48,4.42-6.1,4.61-.81.12-1.18-.37-1.18-1.12,0-2.05,2.61-6.16,5.1-6.41,1.18-.06,1.74.62,2.05,1.68l1.74-1.99c.25-.31.56-.44.87-.44.56,0,1.06.56.68,1.12-.93,1.56-3.05,5.1-3.05,7.16,0,.87.44,1.49,1.62,1.49,4.92,0,10.64-4.98,14.32-8.15.56-.5,1.18.25.62.75ZM283.03,203.81c-.06-.5-.25-1.56-.93-1.56-1.25,0-4.29,4.42-4.29,5.48,1.56-.12,4.17-2.8,5.23-3.92Z"/>
    <path class="cls-4" d="M326.35,184.15c0,.31-1,.5-1,0,0-1-2.3-1.31-5.54-1.25-2.18,0-4.79.19-7.47.37-.81,0-1.62.06-2.43.12-3.61,7.41-9.34,19.67-9.27,25.95,0,1.93.56,3.86,2.86,3.98,4.42.12,13.75-8.28,17.05-11.2.5-.44,1.18.19.56.81-3.55,3.3-12.63,11.39-17.68,11.33-2.93,0-3.86-2.49-3.86-5.04-.06-6.6,5.04-18.24,8.59-25.71h-.56l-1.12.06h-.56c-6.29.25-11.51-.25-11.64-3.42,0-.5,1-.56,1-.06.06,2.37,4.92,2.74,10.64,2.49.87,0,1.81-.06,2.74-.12l2.43-5.04c.12-.25.31-.37.5-.37.5,0,1.18.68.93,1.06-.37.87-1.12,2.37-2.12,4.29.62-.06,1.25-.12,1.87-.12,2.68-.19,5.29-.37,7.47-.37,3.92-.06,6.6.44,6.6,2.24Z"/>
    <path class="cls-4" d="M336.87,202.88c-3.92,3.36-9.71,8.4-14.94,8.4s-1.99-6.72-.62-9.27c.19-.31.44-.44.68-.44.5,0,1,.5.75,1.12-.75,1.31-4.36,7.59-.81,7.59,4.92,0,10.64-4.98,14.32-8.15.5-.5,1.18.25.62.75ZM322.3,200.02c0-.44.37-.81.81-.81s.81.37.81.81-.37.81-.81.81-.81-.37-.81-.81Z"/>
    <path class="cls-4" d="M360.89,202.88c-1.68,1.31-4.29,1.93-6.78,1.93-1.68,0-5.23-.37-5.85-2.43-1.99,1.99-9.27,9.15-12.26,9.15-1.06,0-1.56-.87-1.56-1.93,0-2.3,1.43-5.6,2.55-7.59.19-.31.44-.44.68-.44.5,0,1,.5.75,1.12-.93,1.62-2.68,5.1-2.68,6.91,0,.5.12.87.62.87,2.12,0,10.21-7.84,11.7-9.34.44-.44,1.12-.06,1.12.62,0,1.74,3.73,2.05,4.92,2.05,2.24,0,4.67-.5,6.16-1.68.68-.56,1.37.19.62.75Z"/>
    <path class="cls-4" d="M376.83,202.88c-3.55,3.05-9.65,8.46-14.81,8.34-2.43-.06-3.42-1.37-3.49-3.17-.12-3.24,2.55-7.47,5.85-7.47.93,0,1.68.44,1.68,1.43.06,2.37-3.24,3.24-5.23,3.36-.56,1-.93,1.81-.93,2.93.06,1.18.62,1.99,2.12,1.99,4.85.06,10.89-5.35,14.19-8.15.5-.5,1.18.25.62.75ZM361.45,204.31c1.49-.25,3.67-1,3.67-2.24,0-.31-.31-.5-.62-.5-1.18,0-2.43,1.74-3.05,2.74Z"/>
    <path class="cls-4" d="M439.07,202.88c-7.59,7.84-22.78,22.03-34.42,21.97-9.4-.06-11.45-9.77-11.39-17.37.12-22.41,17.37-58.69,36.6-58.51,8.46.12,11.08,8.9,8.15,15.68-.12.25-.37.37-.62.37-.56,0-1.12-.44-.81-1.12,2.61-6.04,0-13.63-6.72-13.69-17.86,0-34.85,35.98-35.17,57.57-.12,6.85,1.43,15.93,10.02,16.06,11.08.12,26.51-14.25,33.73-21.72.44-.5,1.25.12.62.75Z"/>
    <path class="cls-4" d="M456.25,202.88c-1.68,1.31-4.29,1.93-6.85,1.93-2.24,0-4.48-.44-6.16-1.24.44,2.74-1,7.47-4.36,7.53-1.8,0-2.68-1.43-2.74-3.05-.06-2.8,2.05-6.6,5.17-6.6.56,0,.87.12,1.25.56,1.56,1.18,4.17,1.81,6.78,1.81,2.43,0,4.79-.56,6.29-1.68.75-.56,1.37.19.62.75ZM442.25,203.63c-.12-.5-.37-1.18-.93-1.24-1.87,0-3.67,3.8-3.61,6.04,0,.81.31,1.62,1.25,1.68,2.55,0,3.67-4.48,3.3-6.47Z"/>
    <path class="cls-4" d="M459.55,211.28c0,.56-.44.81-.81.81-.44,0-.81-.25-.81-.81,0-.44.37-.81.81-.81s.81.37.81.81Z"/>
  </g>
  <line class="cls-6" x1="541.39" y1="201.68" x2="468.15" y2="202.14"/>
  <g>
    <path class="cls-6" d="M555.39,189.82c-2.95,5.09-8.23,11.21-14.54,11.85"/>
    <path class="cls-8" d="M555.39,189.82c-.35-.14-1.37-.62-1.72-.75-.21-.08-.43-.15-.65-.23-3.7-1.23-7.6-1.27-11.57-1.17-2.28.06-4.61.74-6.36,2.31-1.35,1.21-2.3,2.89-2.85,4.69-.16.55-.29,1.13-.22,1.7.06.43.23.83.45,1.2.1.17.21.33.32.48,2.38,3.19,6.05,3.16,9.01.86,1.84-1.43,3.23-3.4,4.8-5.17,1.57-1.77,4.15-4.39,6.38-4.79"/>
    <path class="cls-6" d="M528.74,201.95c1.74-2.19,2.65-3.46,3.64-4.31"/>
    <path class="cls-6" d="M536.93,201.88c-3.04.1-6.51.13-8.11.14"/>
    <path class="cls-6" d="M541.09,201.67c-.08,0-.16.02-.25.02-1,.08-2.37.14-3.85.19"/>
    <path class="cls-6" d="M555.58,213.68c-2.81-4.68-7.64-10.39-13.36-11.62-.1-.02-.2-.04-.3-.06-.35-.07-.71-.12-1.06-.15"/>
    <path class="cls-8" d="M555.58,213.68c-.35.14-1.36.64-1.71.78-.21.08-.43.16-.64.24-3.68,1.28-7.58,1.39-11.55,1.35-2.28-.02-4.62-.67-6.39-2.21-1.37-1.19-2.35-2.85-2.92-4.64-.17-.55-.31-1.12-.25-1.7.05-.43.21-.83.42-1.19.1-.17.21-.34.32-.49,2.33-3.22,6-3.26,8.99-1.01,1.86,1.4,3.29,3.35,4.88,5.09,1.59,1.74,4.22,4.32,6.46,4.69"/>
    <path class="cls-6" d="M528.74,202.02s.03.03.04.05c1.78,2.14,2.72,3.39,3.73,4.22"/>
    <path class="cls-6" d="M540.89,201.84h-.04c-.99,0-2.36.02-3.85.04h-.07c-3.07.04-6.59.07-8.2.07"/>
    <path class="cls-6" d="M541.91,202s-.08-.03-.11-.05"/>
  </g>
  <ellipse class="cls-3" cx="532.64" cy="201.98" rx="2.97" ry="3.54"/>
  <rect class="cls-3" x="533.34" y="197.87" width="2.65" height="8.07" transform="translate(736.57 -332.76) rotate(90)"/>
</svg>