<?xml version="1.0" encoding="UTF-8"?><svg id="Layer_1" xmlns="http://www.w3.org/2000/svg" viewBox="0 0 847.21 600.07"><defs><style>.cls-1{stroke-linecap:round;stroke-linejoin:round;}.cls-1,.cls-2,.cls-3{fill:none;}.cls-1,.cls-3{stroke:#66481c;stroke-width:3.5px;}.cls-4{letter-spacing:.01em;}.cls-5{font-family:MynaruseFlare-Reg, 'Mynaruse Flare Regular';font-size:94.94px;}.cls-5,.cls-6{fill:#624019;}.cls-7{fill:#c49b2d;font-family:Salenta, Salenta;font-size:65.05px;letter-spacing:.01em;stroke:#c39a2d;stroke-width:.85px;}.cls-7,.cls-2,.cls-3{stroke-miterlimit:10;}.cls-8,.cls-9{fill:#fce17f;}.cls-2{stroke:#d4a547;stroke-width:2px;}.cls-9{opacity:.61;}.cls-10{fill:#f7911e;}.cls-11{fill:#fbb516;}.cls-12{letter-spacing:.01em;}</style></defs><rect class="cls-9" width="847.21" height="600.07"/><line class="cls-2" x1="603.83" y1="319.27" x2="679.77" y2="319.27"/><text class="cls-5" transform="translate(300.96 289.07)"><tspan class="cls-12" x="0" y="0">I</tspan><tspan x="33.7" y="0">SS</tspan><tspan class="cls-4" x="154.65" y="0">IBEA</tspan></text><rect class="cls-2" x="669.54" y="310.64" width="18.44" height="18.44" rx="1.72" ry="1.72" transform="translate(-27.37 573.64) rotate(-45)"/><rect class="cls-2" x="658.94" y="310.05" width="18.44" height="18.44" rx="1.95" ry="1.95" transform="translate(-30.06 565.97) rotate(-45)"/><path class="cls-10" d="M275.22,247.3c10.53,26.32,9.05,60.11-5.17,83.54-14.22,23.42-41.07,34.18-62.94,23.45-1.14-.56-2.29-1.16-3.45-1.74-2.2-1.42-4.2-2.8-6.03-4.1-.02-.39-.05-.81-.07-1.27,6.26-4.78,11.67-9.99,18.32-19.32l.02-.88c1.99,1.32,4.17,2.36,6.5,2.65,2.87.37,5.75-.33,8.49-1.25,8.97-2.97,17.35-8.16,23.33-15.47,7.77-9.49,11.09-22.01,11.3-34.27.58-10.78-.32-25.07-1.42-37.2v-.02c-.56-6.14-1.18-11.78-1.72-16.28,5.17,6.49,9.53,13.91,12.83,22.13Z"/><path class="cls-6" d="M258.82,204.72c.83,2.18,2.39,7.74,2.27,10.16,0-.05.07.46.21,1.55v.02c-.28,1.76-.86,3.57-1.67,5.4-3.45-3.9-7.19-7.42-11.15-10.48.55-.37,1.11-.74,1.65-1.11,2.97-1.95,5.87-3.8,8.67-5.56l.02.02Z"/><path class="cls-11" d="M240.73,206.02c2.65,1.58,5.26,3.36,7.75,5.34-7.59,5.06-15.47,10.81-22.75,17.26-17.55-16.35-39.45-20.46-60.18-1.58-6.19-6.12-12.85-11.62-19.43-16.39,2.51-1.78,5.12-3.38,7.77-4.83.07-.04.12-.07.19-.09,9.11-4.48,23.87-8.39,29.61-8.91,4.96-.46,9.97-.77,15-.79,14.4-.12,28.83,2.09,42.04,9.99Z"/><path class="cls-8" d="M225.73,228.63c7.28-6.45,15.15-12.2,22.75-17.26,3.96,3.06,7.7,6.58,11.15,10.48-4.69,10.69-17.18,22.12-24.67,29.36-8.77,8.49-18.58,16.07-25.65,26.02-10.51,14.79-11.3,32.74,1.32,45.38,1.02,1.04,2.14,2.04,3.36,2.99.62.49,1.25.97,1.92,1.41l-.02.88c-6.65,9.34-12.06,14.54-18.32,19.32-.67-12.52-1.81-45.59-1.97-64.24,0,.07.02.12.02.19l.63-4.96c1.28-14.89,8.83-27.97,19.04-39.28,3.23-3.6,6.75-7.03,10.44-10.28Z"/><path class="cls-11" d="M231.68,276.98c-13.24,11.8-21.01,27.09-20.64,45.24l-.4.39c-12.62-12.64-11.83-30.59-1.32-45.38,7.07-9.95,16.88-17.53,25.65-26.02,7.49-7.24,19.97-18.67,24.67-29.36.95,1.09,1.88,2.2,2.76,3.32.55,4.5,1.16,10.14,1.72,16.28v.02c-2.67,15.91-21.29,25.6-32.44,35.51Z"/><path class="cls-8" d="M176.52,239.27c10.18,12.83,17.65,27.64,19.08,43.69.16,18.65,1.3,51.72,1.97,64.24-.26.21-.53.42-.81.62-11.67-8.47-16.63-14.8-21.04-19.92.67-.46,1.3-.93,1.93-1.42.81-.63,1.58-1.3,2.3-1.99,13.7-12.66,13.17-31.19,2.37-46.38-7.07-9.95-16.9-17.53-25.65-26.02-7.86-7.61-19.13-19.62-22.77-30.71,3.8-4.08,7.89-7.63,12.22-10.71,6.58,4.76,13.24,10.27,19.43,16.39,3.89,3.85,7.58,7.93,10.97,12.22Z"/><path class="cls-6" d="M196.25,278.19l-.63,4.96c0-.07-.02-.12-.02-.19-1.42-16.05-8.9-30.85-19.08-43.69,16.77-12.59,21.11-12.39,38.77-.35-10.21,11.3-17.76,24.38-19.04,39.28Z"/><path class="cls-10" d="M126.01,270.88c.02,2.87.04,5.75.09,8.65.21,12.25,3.53,24.79,11.29,34.27,6,7.33,14.36,12.5,23.35,15.49,2.74.9,5.63,1.62,8.49,1.25,2.34-.32,4.5-1.34,6.49-2.64,4.41,5.12,9.37,11.45,21.04,19.92-2.02,1.53-4.13,3.02-6.42,4.62l.07.11c-.62.35-1.25.72-1.86,1.07-21.5,12.2-48.93,3.36-64.22-19.18s-18.13-56.52-8.26-83.39c3.59-9.79,8.37-18.18,14.05-25.25-1.16,4.85-1.99,9.77-2.58,14.75-1.25,9.93-1.55,20.08-1.51,30.33Z"/><path class="cls-11" d="M182.33,278.1c10.79,15.19,11.32,33.72-2.37,46.38.39-18.13-10.88-38.08-24.12-49.88-11.13-9.92-25.63-18.2-28.31-34.05.6-4.98,1.42-9.9,2.58-14.75,1.21-1.55,2.5-3.02,3.8-4.43,3.64,11.09,14.91,23.1,22.77,30.71,8.76,8.49,18.58,16.07,25.65,26.02Z"/><path class="cls-6" d="M144.58,209.55c.51.37,1.02.74,1.55,1.11-4.32,3.08-8.42,6.63-12.22,10.71-1.3,1.41-2.58,2.88-3.8,4.43.91-3.99,2.06-7.95,3.45-11.87.67-1.88,3.09-7.35,3.8-9.21,2.37,1.51,4.8,3.13,7.23,4.83Z"/><path class="cls-3" d="M154.09,205.74c13.82-7.47,29.4-10.55,44.6-9.72"/><path class="cls-3" d="M153.9,205.83c.07-.04.12-.07.19-.09,9.11-4.48,23.87-8.39,29.61-8.91,4.96-.46,9.97-.77,15-.79,14.4-.12,28.83,2.09,42.04,9.99,2.65,1.58,5.26,3.36,7.75,5.34,3.96,3.06,7.7,6.58,11.15,10.48.95,1.09,1.88,2.2,2.76,3.32,5.17,6.49,9.53,13.91,12.83,22.13,10.53,26.32,9.05,60.11-5.17,83.54-14.22,23.42-41.07,34.18-62.94,23.45-1.14-.56-2.29-1.16-3.45-1.74-2.76-1.35-5.57-2.48-8.47-1.99-1.67.28-3.23,1.09-4.78,1.97-.62.35-1.25.72-1.86,1.07-21.5,12.2-48.93,3.36-64.22-19.18s-18.13-56.52-8.26-83.39c3.59-9.79,8.37-18.18,14.05-25.25,1.21-1.55,2.5-3.02,3.8-4.43,3.8-4.08,7.89-7.63,12.22-10.71,2.51-1.78,5.12-3.38,7.77-4.83"/><path class="cls-1" d="M264.11,241.46c1.11,12.13,2,26.42,1.42,37.2-.21,12.25-3.53,24.77-11.3,34.27-5.98,7.31-14.36,12.5-23.33,15.47-2.74.91-5.63,1.62-8.49,1.25-2.34-.3-4.52-1.34-6.5-2.65-.67-.44-1.3-.91-1.92-1.41-1.21-.95-2.34-1.95-3.36-2.99-12.62-12.64-11.83-30.59-1.32-45.38,7.07-9.95,16.88-17.53,25.65-26.02,7.49-7.24,19.97-18.67,24.67-29.36.81-1.83,1.39-3.64,1.67-5.4"/><path class="cls-1" d="M261.3,216.45c.23,1.72.63,4.78,1.09,8.72.55,4.5,1.16,10.14,1.72,16.28"/><line class="cls-1" x1="261.3" y1="216.45" x2="261.3" y2="216.43"/><path class="cls-1" d="M258.82,204.72c.83,2.18,2.39,7.74,2.27,10.16,0-.05.07.46.21,1.55"/><path class="cls-3" d="M265.54,270.3c-1.44,6.36-5.22,9.07-9.12,12.9-5.91,5.8-13.94,9.19-19.44,15.38-2.07,2.34-3.67,5.24-3.96,8.37-.07.83-.05,1.71.32,2.44.58,1.23,1.95,1.9,3.29,2.11,2.18.33,4.5-.33,6.15-1.79,1.88-1.65,3.08-4.82,2.85-7.31"/><path class="cls-3" d="M125.61,269.38c.12.53.25,1.02.4,1.49,1.65,5.33,5.13,7.89,8.72,11.41,5.91,5.8,13.94,9.19,19.44,15.38,2.07,2.34,3.67,5.24,3.96,8.37.07.83.05,1.71-.32,2.44-.58,1.23-1.95,1.88-3.29,2.09-2.18.35-4.5-.32-6.15-1.78-1.88-1.65-3.08-4.82-2.85-7.31"/><path class="cls-3" d="M264.11,241.45v.02c-2.67,15.91-21.29,25.6-32.44,35.51-13.24,11.8-21.01,27.09-20.64,45.24"/><path class="cls-3" d="M137.35,204.72c2.37,1.51,4.8,3.13,7.23,4.83.51.37,1.02.74,1.55,1.11,6.58,4.76,13.24,10.27,19.43,16.39,3.89,3.85,7.58,7.93,10.97,12.22,10.18,12.83,17.65,27.64,19.08,43.69,0,.07.02.12.02.19l.63-4.96c1.28-14.89,8.83-27.97,19.04-39.28,3.23-3.6,6.75-7.03,10.44-10.28,7.28-6.45,15.15-12.2,22.75-17.26.55-.37,1.11-.74,1.65-1.11,2.97-1.95,5.87-3.8,8.67-5.56.33-.19.67-.4,1-.62"/><path class="cls-1" d="M137.35,204.72c-.7,1.86-3.13,7.33-3.8,9.21-1.39,3.92-2.53,7.88-3.45,11.87-1.16,4.85-1.99,9.77-2.58,14.75-1.25,9.93-1.55,20.08-1.51,30.33.02,2.87.04,5.75.09,8.65.21,12.25,3.53,24.79,11.29,34.27,6,7.33,14.36,12.5,23.35,15.49,2.74.9,5.63,1.62,8.49,1.25,2.34-.32,4.5-1.34,6.49-2.64.67-.46,1.3-.93,1.93-1.42.81-.63,1.58-1.3,2.3-1.99,13.7-12.66,13.17-31.19,2.37-46.38-7.07-9.95-16.9-17.53-25.65-26.02-7.86-7.61-19.13-19.62-22.77-30.71-.42-1.28-.76-2.55-.95-3.8"/><path class="cls-1" d="M127.53,240.55c2.67,15.86,17.18,24.14,28.31,34.05,13.24,11.8,24.51,31.75,24.12,49.88"/><path class="cls-3" d="M127.51,240.48s0,.05.02.07"/><path class="cls-3" d="M204.43,353.05c-.26-.16-.51-.33-.76-.49-2.2-1.42-4.2-2.8-6.03-4.1-.3-.23-.6-.42-.88-.65-11.67-8.47-16.63-14.8-21.04-19.92l-.02-.02"/><path class="cls-3" d="M190.34,352.43c2.29-1.6,4.4-3.09,6.42-4.62.28-.19.55-.4.81-.62,6.26-4.78,11.67-9.99,18.32-19.32"/><path class="cls-3" d="M195.6,275.38c-.04,2.07-.02,4.66,0,7.58.16,18.65,1.3,51.72,1.97,64.24.02.46.05.88.07,1.27"/><path class="cls-3" d="M176.1,239.58l.42-.32c16.77-12.59,21.11-12.39,38.77-.35.32.21.65.44.98.67"/><path class="cls-3" d="M165.55,227.05c20.73-18.88,42.63-14.77,60.18,1.58.11.09.21.18.32.28"/><text class="cls-7" transform="translate(314.67 326.84)"><tspan x="0" y="0">Creative Co.</tspan></text></svg>